<svg width="16" height="16" viewBox="0 0 16 16" fill="none" xmlns="http://www.w3.org/2000/svg">
<path d="M11.7084 0.669067L9.85689 0.666016C7.77678 0.666016 6.43253 2.08274 6.43253 4.2755V5.93972H4.57092C4.41005 5.93972 4.27979 6.07368 4.27979 6.23893V8.65019C4.27979 8.81543 4.4102 8.94925 4.57092 8.94925H6.43253V15.0336C6.43253 15.1989 6.56279 15.3327 6.72366 15.3327H9.15253C9.31339 15.3327 9.44366 15.1987 9.44366 15.0336V8.94925H11.6203C11.7812 8.94925 11.9114 8.81543 11.9114 8.65019L11.9123 6.23893C11.9123 6.15959 11.8816 6.0836 11.8271 6.02745C11.7726 5.9713 11.6983 5.93972 11.6211 5.93972H9.44366V4.52894C9.44366 3.85087 9.60096 3.50664 10.4608 3.50664L11.7081 3.50618C11.8688 3.50618 11.9991 3.37221 11.9991 3.20712V0.968129C11.9991 0.803187 11.869 0.669372 11.7084 0.669067Z" fill="white"/>
</svg>
