<svg width="162" height="48" viewBox="0 0 162 48" fill="none" xmlns="http://www.w3.org/2000/svg">
<g clip-path="url(#clip0_2677_275)">
<path d="M156 47.991H6C2.64 47.991 0 45.3519 0 41.9931V6.00571C0 2.64689 2.64 0.0078125 6 0.0078125H156C159.36 0.0078125 162 2.64689 162 6.00571V41.9931C162 45.3519 159.36 47.991 156 47.991Z" fill="#424551"/>
<path d="M156 0.967477C158.76 0.967477 161.04 3.24668 161.04 6.00571V41.9931C161.04 44.7522 158.76 47.0314 156 47.0314H6C3.24 47.0314 0.96 44.7522 0.96 41.9931V6.00571C0.96 3.24668 3.24 0.967477 6 0.967477H156ZM156 0.0078125H6C2.64 0.0078125 0 2.76685 0 6.00571V41.9931C0 45.3519 2.64 47.991 6 47.991H156C159.36 47.991 162 45.3519 162 41.9931V6.00571C162 2.76685 159.36 0.0078125 156 0.0078125Z" fill="#424551"/>
<path d="M56.8802 12.2438C56.8802 13.2034 56.6402 14.0431 56.0402 14.6429C55.3202 15.3627 54.4802 15.7226 53.4002 15.7226C52.3202 15.7226 51.4802 15.3627 50.7602 14.6429C50.0402 13.9232 49.6802 13.0835 49.6802 12.0039C49.6802 10.9242 50.0402 10.0845 50.7602 9.36478C51.4802 8.64503 52.3202 8.28516 53.4002 8.28516C53.8802 8.28516 54.3602 8.40511 54.8402 8.64503C55.3202 8.88495 55.6802 9.12486 55.9202 9.48474L55.3202 10.0845C54.8402 9.48474 54.2402 9.24482 53.4002 9.24482C52.6802 9.24482 51.9602 9.48474 51.4802 10.0845C50.8802 10.5644 50.6402 11.2841 50.6402 12.1238C50.6402 12.9635 50.8802 13.6833 51.4802 14.1631C52.0802 14.6429 52.6802 15.0028 53.4002 15.0028C54.2402 15.0028 54.8402 14.7629 55.4402 14.1631C55.8002 13.8032 56.0402 13.3234 56.0402 12.7236H53.4002V11.7639H56.8802V12.2438ZM62.4002 9.24482H59.1602V11.524H62.1602V12.3637H59.1602V14.6429H62.4002V15.6026H58.2002V8.40511H62.4002V9.24482ZM66.3602 15.6026H65.4002V9.24482H63.3602V8.40511H68.4002V9.24482H66.3602V15.6026ZM71.8802 15.6026V8.40511H72.8402V15.6026H71.8802ZM76.9202 15.6026H75.9602V9.24482H73.9202V8.40511H78.8402V9.24482H76.8002V15.6026H76.9202ZM88.3202 14.6429C87.6002 15.3627 86.7602 15.7226 85.6802 15.7226C84.6002 15.7226 83.7602 15.3627 83.0402 14.6429C82.3202 13.9232 81.9602 13.0835 81.9602 12.0039C81.9602 10.9242 82.3202 10.0845 83.0402 9.36478C83.7602 8.64503 84.6002 8.28516 85.6802 8.28516C86.7602 8.28516 87.6002 8.64503 88.3202 9.36478C89.0402 10.0845 89.4002 10.9242 89.4002 12.0039C89.4002 13.0835 89.0402 13.9232 88.3202 14.6429ZM83.7602 14.0431C84.2402 14.523 84.9602 14.8828 85.6802 14.8828C86.4002 14.8828 87.1202 14.6429 87.6002 14.0431C88.0802 13.5633 88.4402 12.8436 88.4402 12.0039C88.4402 11.1641 88.2002 10.4444 87.6002 9.96457C87.1202 9.48474 86.4002 9.12486 85.6802 9.12486C84.9602 9.12486 84.2402 9.36478 83.7602 9.96457C83.2802 10.4444 82.9202 11.1641 82.9202 12.0039C82.9202 12.8436 83.1602 13.5633 83.7602 14.0431ZM90.7202 15.6026V8.40511H91.8002L95.2802 14.0431V8.40511H96.2402V15.6026H95.2802L91.5602 9.72465V15.6026H90.7202Z" fill="white"/>
<path d="M81.7199 26.1595C78.8399 26.1595 76.5599 28.3188 76.5599 31.3177C76.5599 34.1967 78.8399 36.4759 81.7199 36.4759C84.5999 36.4759 86.8799 34.3167 86.8799 31.3177C86.8799 28.1988 84.5999 26.1595 81.7199 26.1595ZM81.7199 34.3167C80.1599 34.3167 78.8399 32.9971 78.8399 31.1977C78.8399 29.3984 80.1599 28.0788 81.7199 28.0788C83.2799 28.0788 84.5999 29.2784 84.5999 31.1977C84.5999 32.9971 83.2799 34.3167 81.7199 34.3167ZM70.5599 26.1595C67.6798 26.1595 65.3998 28.3188 65.3998 31.3177C65.3998 34.1967 67.6798 36.4759 70.5599 36.4759C73.4399 36.4759 75.7199 34.3167 75.7199 31.3177C75.7199 28.1988 73.4399 26.1595 70.5599 26.1595ZM70.5599 34.3167C68.9998 34.3167 67.6798 32.9971 67.6798 31.1977C67.6798 29.3984 68.9998 28.0788 70.5599 28.0788C72.1199 28.0788 73.4399 29.2784 73.4399 31.1977C73.4399 32.9971 72.1199 34.3167 70.5599 34.3167ZM57.2398 27.719V29.8782H62.3998C62.2798 31.0778 61.7998 32.0375 61.1998 32.6372C60.4798 33.357 59.2798 34.1967 57.2398 34.1967C53.9998 34.1967 51.5998 31.6776 51.5998 28.4387C51.5998 25.1998 54.1198 22.6807 57.2398 22.6807C58.9198 22.6807 60.2398 23.4005 61.1998 24.2402L62.7598 22.6807C61.4398 21.4811 59.7598 20.5215 57.3598 20.5215C53.0398 20.5215 49.3198 24.1202 49.3198 28.4387C49.3198 32.7572 53.0398 36.3559 57.3598 36.3559C59.7598 36.3559 61.4398 35.6362 62.8798 34.0767C64.3198 32.6372 64.7998 30.598 64.7998 29.0385C64.7998 28.5587 64.7998 28.0788 64.6798 27.719H57.2398ZM111.72 29.3984C111.24 28.1988 110.04 26.1595 107.4 26.1595C104.76 26.1595 102.6 28.1988 102.6 31.3177C102.6 34.1967 104.76 36.4759 107.64 36.4759C109.92 36.4759 111.36 35.0364 111.84 34.1967L110.16 32.9971C109.56 33.8368 108.84 34.4366 107.64 34.4366C106.44 34.4366 105.72 33.9568 105.12 32.8772L111.96 29.9982L111.72 29.3984ZM104.76 31.0778C104.76 29.1585 106.32 28.0788 107.4 28.0788C108.24 28.0788 109.08 28.5587 109.32 29.1585L104.76 31.0778ZM99.1199 35.9961H101.4V21.0013H99.1199V35.9961ZM95.5199 27.2391C94.9199 26.6393 93.9599 26.0396 92.7599 26.0396C90.2399 26.0396 87.8399 28.3188 87.8399 31.1977C87.8399 34.0767 90.1199 36.236 92.7599 36.236C93.9599 36.236 94.9199 35.6362 95.3999 35.0364H95.5199V35.7562C95.5199 37.6755 94.4399 38.7551 92.7599 38.7551C91.4399 38.7551 90.4799 37.7954 90.2399 36.9557L88.3199 37.7954C88.9199 39.115 90.3599 40.7944 92.8799 40.7944C95.5199 40.7944 97.6799 39.2349 97.6799 35.5162V26.3994H95.5199V27.2391ZM92.8799 34.3167C91.3199 34.3167 89.9999 32.9971 89.9999 31.1977C89.9999 29.3984 91.3199 28.0788 92.8799 28.0788C94.4399 28.0788 95.6399 29.3984 95.6399 31.1977C95.6399 32.9971 94.4399 34.3167 92.8799 34.3167ZM122.16 21.0013H116.76V35.9961H119.04V30.358H122.16C124.68 30.358 127.08 28.5587 127.08 25.6797C127.08 22.8007 124.68 21.0013 122.16 21.0013ZM122.28 28.1988H119.04V23.0406H122.28C123.96 23.0406 124.92 24.4801 124.92 25.5597C124.8 26.8793 123.84 28.1988 122.28 28.1988ZM136.08 26.0396C134.4 26.0396 132.72 26.7593 132.12 28.3188L134.16 29.1585C134.64 28.3188 135.36 28.0788 136.2 28.0788C137.4 28.0788 138.48 28.7986 138.6 29.9982V30.1181C138.24 29.8782 137.28 29.5183 136.32 29.5183C134.16 29.5183 132 30.7179 132 32.8772C132 34.9164 133.8 36.236 135.72 36.236C137.28 36.236 138 35.5162 138.6 34.7965H138.72V35.9961H140.88V30.2381C140.64 27.599 138.6 26.0396 136.08 26.0396ZM135.84 34.3167C135.12 34.3167 134.04 33.9568 134.04 32.9971C134.04 31.7975 135.36 31.4377 136.44 31.4377C137.4 31.4377 137.88 31.6776 138.48 31.9175C138.24 33.357 137.04 34.3167 135.84 34.3167ZM148.44 26.3994L145.92 32.8772H145.8L143.16 26.3994H140.76L144.72 35.5162L142.44 40.5545H144.72L150.84 26.3994H148.44ZM128.28 35.9961H130.56V21.0013H128.28V35.9961Z" fill="white"/>
<path d="M12.48 9.00586C12.12 9.36573 12 9.96552 12 10.6853V37.196C12 37.9157 12.24 38.5155 12.6 38.8754L12.72 38.9954L27.6 24.1206V23.8807L12.48 9.00586Z" fill="url(#paint0_linear_2677_275)"/>
<path d="M32.4 29.1574L27.48 24.2391V23.8792L32.4 18.9609L32.52 19.0809L38.4 22.4397C40.08 23.3994 40.08 24.9588 38.4 25.9185L32.4 29.1574Z" fill="url(#paint1_linear_2677_275)"/>
<path d="M32.52 29.0382L27.48 24L12.48 38.9948C13.08 39.5946 13.92 39.5946 15 39.1147L32.52 29.0382Z" fill="url(#paint2_linear_2677_275)"/>
<path d="M32.52 18.9622L15 9.00566C13.92 8.40587 13.08 8.52583 12.48 9.12562L27.48 24.0004L32.52 18.9622Z" fill="url(#paint3_linear_2677_275)"/>
<path opacity="0.2" d="M32.4 28.918L15 38.7545C14.04 39.3543 13.2 39.2343 12.6 38.7545L12.48 38.8745L12.6 38.9944C13.2 39.4743 14.04 39.5942 15 38.9944L32.4 28.918Z" fill="#424551"/>
<path opacity="0.2" d="M12.48 38.7548C12.12 38.395 12 37.7952 12 37.0754V37.1954C12 37.9151 12.24 38.5149 12.6 38.8748V38.7548H12.48ZM38.4 25.5595L32.4 28.9183L32.52 29.0382L38.4 25.6794C39.24 25.1996 39.6 24.5998 39.6 24C39.6 24.5998 39.12 25.0796 38.4 25.5595Z" fill="#424551"/>
<path opacity="0.2" d="M15 9.12521L38.4 22.4406C39.12 22.9204 39.6 23.4002 39.6 24C39.6 23.4002 39.24 22.8004 38.4 22.3206L15 9.00525C13.32 8.04559 12 8.76534 12 10.6847V10.8046C12 9.00525 13.32 8.16555 15 9.12521Z" fill="white"/>
</g>
<defs>
<linearGradient id="paint0_linear_2677_275" x1="26.16" y1="10.4574" x2="6.02743" y2="30.5957" gradientUnits="userSpaceOnUse">
<stop stop-color="#00A0FF"/>
<stop offset="0.007" stop-color="#00A1FF"/>
<stop offset="0.26" stop-color="#00BEFF"/>
<stop offset="0.512" stop-color="#00D2FF"/>
<stop offset="0.76" stop-color="#00DFFF"/>
<stop offset="1" stop-color="#00E3FF"/>
</linearGradient>
<linearGradient id="paint1_linear_2677_275" x1="40.6008" y1="24.0004" x2="11.5643" y2="24.0004" gradientUnits="userSpaceOnUse">
<stop stop-color="#FFE000"/>
<stop offset="0.409" stop-color="#FFBD00"/>
<stop offset="0.775" stop-color="#FFA500"/>
<stop offset="1" stop-color="#FF9C00"/>
</linearGradient>
<linearGradient id="paint2_linear_2677_275" x1="29.7924" y1="26.7542" x2="2.4923" y2="54.0639" gradientUnits="userSpaceOnUse">
<stop stop-color="#FF3A44"/>
<stop offset="1" stop-color="#C31162"/>
</linearGradient>
<linearGradient id="paint3_linear_2677_275" x1="8.75638" y1="0.219936" x2="20.9477" y2="12.4155" gradientUnits="userSpaceOnUse">
<stop stop-color="#32A071"/>
<stop offset="0.069" stop-color="#2DA771"/>
<stop offset="0.476" stop-color="#15CF74"/>
<stop offset="0.801" stop-color="#06E775"/>
<stop offset="1" stop-color="#00F076"/>
</linearGradient>
<clipPath id="clip0_2677_275">
<rect width="162" height="48" fill="white"/>
</clipPath>
</defs>
</svg>
