<svg width="16" height="16" viewBox="0 0 16 16" fill="none" xmlns="http://www.w3.org/2000/svg">
<path d="M14.6538 5.25402C14.6225 4.54557 14.508 4.05852 14.3439 3.63648C14.1746 3.18849 13.9141 2.78741 13.5728 2.45399C13.2394 2.11539 12.8357 1.85227 12.3929 1.68562C11.9684 1.5215 11.4839 1.40694 10.7755 1.3757C10.0617 1.34182 9.83514 1.33398 8.02489 1.33398C6.21465 1.33398 5.98806 1.34182 5.27696 1.37305C4.56851 1.40429 4.08146 1.51896 3.65952 1.68297C3.21144 1.85227 2.81036 2.11274 2.47694 2.45399C2.13834 2.78741 1.87532 3.19114 1.70856 3.63393C1.54445 4.05852 1.42988 4.54292 1.39865 5.25137C1.36477 5.96512 1.35693 6.1917 1.35693 8.00195C1.35693 9.8122 1.36477 10.0388 1.396 10.7499C1.42724 11.4583 1.54191 11.9454 1.70602 12.3674C1.87532 12.8154 2.13834 13.2165 2.47694 13.5499C2.81036 13.8885 3.21408 14.1516 3.65688 14.3183C4.08146 14.4824 4.56587 14.597 5.27442 14.6282C5.98541 14.6595 6.2121 14.6673 8.02235 14.6673C9.8326 14.6673 10.0592 14.6595 10.7703 14.6282C11.4787 14.597 11.9658 14.4824 12.3877 14.3183C13.2838 13.9718 13.9922 13.2634 14.3387 12.3674C14.5027 11.9428 14.6174 11.4583 14.6486 10.7499C14.6798 10.0388 14.6877 9.8122 14.6877 8.00195C14.6877 6.1917 14.685 5.96512 14.6538 5.25402ZM13.4531 10.6978C13.4244 11.349 13.315 11.7006 13.2239 11.935C12.9998 12.5159 12.5388 12.9769 11.9579 13.2009C11.7235 13.2921 11.3694 13.4015 10.7207 13.4301C10.0175 13.4614 9.80655 13.4691 8.02754 13.4691C6.24853 13.4691 6.03496 13.4614 5.33425 13.4301C4.68308 13.4015 4.33145 13.2921 4.09703 13.2009C3.80797 13.0941 3.54486 12.9248 3.3313 12.7034C3.1099 12.4872 2.94059 12.2267 2.83376 11.9377C2.7426 11.7032 2.63322 11.349 2.60463 10.7004C2.57329 9.99717 2.56556 9.78616 2.56556 8.00714C2.56556 6.22813 2.57329 6.01457 2.60463 5.31395C2.63322 4.66278 2.7426 4.31115 2.83376 4.07673C2.94059 3.78757 3.1099 3.52456 3.33394 3.31089C3.55005 3.08949 3.81051 2.92019 4.09967 2.81346C4.33409 2.7223 4.68837 2.61292 5.33689 2.58423C6.04015 2.55299 6.25117 2.54516 8.03008 2.54516C9.81174 2.54516 10.0227 2.55299 10.7234 2.58423C11.3745 2.61292 11.7262 2.7223 11.9606 2.81346C12.2497 2.92019 12.5128 3.08949 12.7263 3.31089C12.9477 3.5271 13.117 3.78757 13.2239 4.07673C13.315 4.31115 13.4244 4.66532 13.4531 5.31395C13.4843 6.01721 13.4922 6.22813 13.4922 8.00714C13.4922 9.78616 13.4843 9.99453 13.4531 10.6978Z" fill="white"/>
<path d="M8.02489 4.5768C6.13396 4.5768 4.59974 6.11092 4.59974 8.00196C4.59974 9.893 6.13396 11.4271 8.02489 11.4271C9.91593 11.4271 11.45 9.893 11.45 8.00196C11.45 6.11092 9.91593 4.5768 8.02489 4.5768ZM8.02489 10.2238C6.79815 10.2238 5.80308 9.2288 5.80308 8.00196C5.80308 6.77511 6.79815 5.78015 8.02489 5.78015C9.25173 5.78015 10.2467 6.77511 10.2467 8.00196C10.2467 9.2288 9.25173 10.2238 8.02489 10.2238Z" fill="white"/>
<path d="M12.3852 4.44138C12.3852 4.88296 12.0272 5.241 11.5855 5.241C11.1439 5.241 10.7859 4.88296 10.7859 4.44138C10.7859 3.99971 11.1439 3.64177 11.5855 3.64177C12.0272 3.64177 12.3852 3.99971 12.3852 4.44138Z" fill="white"/>
</svg>
