<svg width="16" height="17" viewBox="0 0 16 17" fill="none" xmlns="http://www.w3.org/2000/svg">
<path fill-rule="evenodd" clip-rule="evenodd" d="M8.00006 2.66732C6.71139 2.66732 5.66673 3.71199 5.66673 5.00065C5.66673 6.28932 6.71139 7.33398 8.00006 7.33398C9.28872 7.33398 10.3334 6.28932 10.3334 5.00065C10.3334 3.71199 9.28872 2.66732 8.00006 2.66732ZM4.33339 5.00065C4.33339 2.97561 5.97501 1.33398 8.00006 1.33398C10.0251 1.33398 11.6667 2.97561 11.6667 5.00065C11.6667 7.0257 10.0251 8.66732 8.00006 8.66732C5.97501 8.66732 4.33339 7.0257 4.33339 5.00065Z" fill="white"/>
<path fill-rule="evenodd" clip-rule="evenodd" d="M4.06943 10.6673C3.60722 10.6673 3.24595 10.8924 3.0993 11.2157C2.89632 11.6633 2.71252 12.1961 2.66915 12.7014C2.64976 12.9273 2.74395 13.0938 2.87374 13.1744C3.55985 13.6006 5.14965 14.334 8.00006 14.334C10.8505 14.334 12.4403 13.6006 13.1264 13.1744C13.2562 13.0938 13.3504 12.9273 13.331 12.7014C13.2876 12.1961 13.1038 11.6633 12.9008 11.2157C12.7542 10.8924 12.3929 10.6673 11.9307 10.6673H4.06943ZM1.88501 10.665C2.29031 9.77136 3.19533 9.33398 4.06943 9.33398H11.9307C12.8048 9.33398 13.7098 9.77136 14.1151 10.665C14.3479 11.1783 14.5977 11.8683 14.6594 12.5874C14.7156 13.2422 14.4435 13.9259 13.83 14.307C12.9276 14.8676 11.0931 15.6673 8.00006 15.6673C4.90699 15.6673 3.07253 14.8676 2.17017 14.307C1.55666 13.9259 1.2845 13.2422 1.3407 12.5874C1.40242 11.8683 1.65222 11.1783 1.88501 10.665Z" fill="white"/>
</svg>
