<svg width="16" height="16" viewBox="0 0 16 16" fill="none" xmlns="http://www.w3.org/2000/svg">
<g clip-path="url(#clip0_37020_245)">
<path fill-rule="evenodd" clip-rule="evenodd" d="M7.25016 2.16732C4.44272 2.16732 2.16683 4.4432 2.16683 7.25065C2.16683 10.0581 4.44272 12.334 7.25016 12.334C8.65276 12.334 9.92161 11.7668 10.842 10.8477C11.7642 9.92686 12.3335 8.65587 12.3335 7.25065C12.3335 4.4432 10.0576 2.16732 7.25016 2.16732ZM0.833496 7.25065C0.833496 3.70682 3.70634 0.833984 7.25016 0.833984C10.794 0.833984 13.6668 3.70682 13.6668 7.25065C13.6668 8.78346 13.1287 10.1915 12.2321 11.2949L14.9711 14.0288C15.2317 14.2889 15.2321 14.711 14.972 14.9716C14.7119 15.2322 14.2898 15.2326 14.0292 14.9725L11.2888 12.2371C10.1863 13.131 8.78039 13.6673 7.25016 13.6673C3.70634 13.6673 0.833496 10.7945 0.833496 7.25065Z" fill="#424551"/>
</g>
<defs>
<clipPath id="clip0_37020_245">
<rect width="16" height="16" fill="white"/>
</clipPath>
</defs>
</svg>
