<svg width="20" height="20" viewBox="0 0 20 20" fill="none" xmlns="http://www.w3.org/2000/svg">
<path fill-rule="evenodd" clip-rule="evenodd" d="M9.99956 16.5894C6.167 14.4065 4.02946 12.2369 2.99582 10.3545C1.93789 8.42785 2.0302 6.80512 2.61724 5.65342C3.82389 3.28614 7.25522 2.52916 9.34586 5.17331L9.99951 6.00002L10.6532 5.17335C12.7442 2.52909 16.1757 3.2862 17.3823 5.65342C17.9694 6.80511 18.0617 8.42782 17.0037 10.3545C15.9699 12.2369 13.8323 14.4065 9.99956 16.5894ZM9.99959 3.42157C7.05858 0.626898 2.71992 1.78193 1.13235 4.89654C0.261063 6.60588 0.249161 8.81515 1.5349 11.1567C2.80924 13.4775 5.34999 15.9271 9.59643 18.2742L9.99954 18.497L10.4027 18.2742C14.6493 15.9271 17.1901 13.4775 18.4645 11.1567C19.7504 8.81518 19.7385 6.6059 18.8672 4.89654C17.2796 1.78187 12.9408 0.62694 9.99959 3.42157Z" fill="#424551"/>
</svg>
