<svg width="24" height="24" viewBox="0 0 24 24" fill="none" xmlns="http://www.w3.org/2000/svg">
<path fill-rule="evenodd" clip-rule="evenodd" d="M10.875 3.25C6.66383 3.25 3.25 6.66383 3.25 10.875C3.25 15.0862 6.66383 18.5 10.875 18.5C12.9789 18.5 14.8822 17.6492 16.2628 16.2706C17.646 14.8893 18.5 12.9828 18.5 10.875C18.5 6.66383 15.0862 3.25 10.875 3.25ZM1.25 10.875C1.25 5.55926 5.55926 1.25 10.875 1.25C16.1907 1.25 20.5 5.55926 20.5 10.875C20.5 13.1742 19.6928 15.2863 18.348 16.9413L22.4565 21.0422C22.8473 21.4324 22.8479 22.0656 22.4578 22.4565C22.0676 22.8473 21.4344 22.8479 21.0435 22.4578L16.933 18.3547C15.2792 19.6955 13.1703 20.5 10.875 20.5C5.55926 20.5 1.25 16.1907 1.25 10.875Z" fill="#1E212C"/>
</svg>
